<svg width="315" height="128" viewBox="0 0 315 128" fill="none" xmlns="http://www.w3.org/2000/svg">
<ellipse cx="312.424" cy="2.09884" rx="2.09841" ry="2.34905" transform="rotate(90 312.424 2.09884)" fill="#AF1F17"/>
<ellipse cx="312.424" cy="32.8751" rx="2.09841" ry="2.34905" transform="rotate(90 312.424 32.8751)" fill="#AF1F17"/>
<ellipse cx="312.424" cy="63.6518" rx="2.09841" ry="2.34905" transform="rotate(90 312.424 63.6518)" fill="#AF1F17"/>
<ellipse cx="312.424" cy="94.4285" rx="2.09841" ry="2.34905" transform="rotate(90 312.424 94.4285)" fill="#AF1F17"/>
<ellipse cx="312.424" cy="125.205" rx="2.09841" ry="2.34905" transform="rotate(90 312.424 125.205)" fill="#AF1F17"/>
<ellipse cx="277.971" cy="2.09841" rx="2.09841" ry="2.34905" transform="rotate(90 277.971 2.09841)" fill="#AF1F17"/>
<ellipse cx="277.971" cy="32.8751" rx="2.09841" ry="2.34905" transform="rotate(90 277.971 32.8751)" fill="#AF1F17"/>
<ellipse cx="277.971" cy="63.6518" rx="2.09841" ry="2.34905" transform="rotate(90 277.971 63.6518)" fill="#AF1F17"/>
<ellipse cx="277.971" cy="94.4285" rx="2.09841" ry="2.34905" transform="rotate(90 277.971 94.4285)" fill="#AF1F17"/>
<ellipse cx="277.971" cy="125.205" rx="2.09841" ry="2.34905" transform="rotate(90 277.971 125.205)" fill="#AF1F17"/>
<ellipse cx="243.519" cy="2.09841" rx="2.09841" ry="2.34905" transform="rotate(90 243.519 2.09841)" fill="#AF1F17"/>
<ellipse cx="243.519" cy="32.8751" rx="2.09841" ry="2.34905" transform="rotate(90 243.519 32.8751)" fill="#AF1F17"/>
<ellipse cx="243.519" cy="63.6518" rx="2.09841" ry="2.34905" transform="rotate(90 243.519 63.6518)" fill="#AF1F17"/>
<ellipse cx="243.519" cy="94.4285" rx="2.09841" ry="2.34905" transform="rotate(90 243.519 94.4285)" fill="#AF1F17"/>
<ellipse cx="243.519" cy="125.205" rx="2.09841" ry="2.34905" transform="rotate(90 243.519 125.205)" fill="#AF1F17"/>
<ellipse cx="209.066" cy="2.09841" rx="2.09841" ry="2.34905" transform="rotate(90 209.066 2.09841)" fill="#AF1F17"/>
<ellipse cx="209.066" cy="32.8751" rx="2.09841" ry="2.34905" transform="rotate(90 209.066 32.8751)" fill="#AF1F17"/>
<ellipse cx="209.066" cy="63.6518" rx="2.09841" ry="2.34905" transform="rotate(90 209.066 63.6518)" fill="#AF1F17"/>
<ellipse cx="209.066" cy="94.4285" rx="2.09841" ry="2.34905" transform="rotate(90 209.066 94.4285)" fill="#AF1F17"/>
<ellipse cx="209.066" cy="125.205" rx="2.09841" ry="2.34905" transform="rotate(90 209.066 125.205)" fill="#AF1F17"/>
<ellipse cx="174.613" cy="2.09841" rx="2.09841" ry="2.34905" transform="rotate(90 174.613 2.09841)" fill="#AF1F17"/>
<ellipse cx="174.613" cy="32.8751" rx="2.09841" ry="2.34905" transform="rotate(90 174.613 32.8751)" fill="#AF1F17"/>
<ellipse cx="174.613" cy="63.6518" rx="2.09841" ry="2.34905" transform="rotate(90 174.613 63.6518)" fill="#AF1F17"/>
<ellipse cx="174.613" cy="94.4285" rx="2.09841" ry="2.34905" transform="rotate(90 174.613 94.4285)" fill="#AF1F17"/>
<ellipse cx="174.613" cy="125.205" rx="2.09841" ry="2.34905" transform="rotate(90 174.613 125.205)" fill="#AF1F17"/>
<ellipse cx="140.16" cy="2.09841" rx="2.09841" ry="2.34905" transform="rotate(90 140.16 2.09841)" fill="#AF1F17"/>
<ellipse cx="140.16" cy="32.8751" rx="2.09841" ry="2.34905" transform="rotate(90 140.16 32.8751)" fill="#AF1F17"/>
<ellipse cx="140.16" cy="63.6518" rx="2.09841" ry="2.34905" transform="rotate(90 140.16 63.6518)" fill="#AF1F17"/>
<ellipse cx="140.16" cy="94.4285" rx="2.09841" ry="2.34905" transform="rotate(90 140.16 94.4285)" fill="#AF1F17"/>
<ellipse cx="140.16" cy="125.205" rx="2.09841" ry="2.34905" transform="rotate(90 140.16 125.205)" fill="#AF1F17"/>
<ellipse cx="105.707" cy="2.09841" rx="2.09841" ry="2.34905" transform="rotate(90 105.707 2.09841)" fill="#AF1F17"/>
<ellipse cx="105.707" cy="32.8751" rx="2.09841" ry="2.34905" transform="rotate(90 105.707 32.8751)" fill="#AF1F17"/>
<ellipse cx="105.707" cy="63.6518" rx="2.09841" ry="2.34905" transform="rotate(90 105.707 63.6518)" fill="#AF1F17"/>
<ellipse cx="105.707" cy="94.4285" rx="2.09841" ry="2.34905" transform="rotate(90 105.707 94.4285)" fill="#AF1F17"/>
<ellipse cx="105.707" cy="125.205" rx="2.09841" ry="2.34905" transform="rotate(90 105.707 125.205)" fill="#AF1F17"/>
<ellipse cx="71.2546" cy="2.09841" rx="2.09841" ry="2.34905" transform="rotate(90 71.2546 2.09841)" fill="#AF1F17"/>
<ellipse cx="71.2546" cy="32.8751" rx="2.09841" ry="2.34905" transform="rotate(90 71.2546 32.8751)" fill="#AF1F17"/>
<ellipse cx="71.2546" cy="63.6518" rx="2.09841" ry="2.34905" transform="rotate(90 71.2546 63.6518)" fill="#AF1F17"/>
<ellipse cx="71.2546" cy="94.4285" rx="2.09841" ry="2.34905" transform="rotate(90 71.2546 94.4285)" fill="#AF1F17"/>
<ellipse cx="71.2546" cy="125.205" rx="2.09841" ry="2.34905" transform="rotate(90 71.2546 125.205)" fill="#AF1F17"/>
<ellipse cx="36.8019" cy="2.09841" rx="2.09841" ry="2.34905" transform="rotate(90 36.8019 2.09841)" fill="#AF1F17"/>
<ellipse cx="36.8018" cy="32.8751" rx="2.09841" ry="2.34905" transform="rotate(90 36.8018 32.8751)" fill="#AF1F17"/>
<ellipse cx="36.8018" cy="63.6518" rx="2.09841" ry="2.34905" transform="rotate(90 36.8018 63.6518)" fill="#AF1F17"/>
<ellipse cx="36.8018" cy="94.4285" rx="2.09841" ry="2.34905" transform="rotate(90 36.8018 94.4285)" fill="#AF1F17"/>
<ellipse cx="36.8018" cy="125.205" rx="2.09841" ry="2.34905" transform="rotate(90 36.8018 125.205)" fill="#AF1F17"/>
<ellipse cx="2.34907" cy="2.09841" rx="2.09841" ry="2.34905" transform="rotate(90 2.34907 2.09841)" fill="#AF1F17"/>
<ellipse cx="2.349" cy="32.8751" rx="2.09841" ry="2.34905" transform="rotate(90 2.349 32.8751)" fill="#AF1F17"/>
<ellipse cx="2.349" cy="63.6518" rx="2.09841" ry="2.34905" transform="rotate(90 2.349 63.6518)" fill="#AF1F17"/>
<ellipse cx="2.349" cy="94.4285" rx="2.09841" ry="2.34905" transform="rotate(90 2.349 94.4285)" fill="#AF1F17"/>
<ellipse cx="2.34907" cy="125.205" rx="2.09841" ry="2.34905" transform="rotate(90 2.34907 125.205)" fill="#AF1F17"/>
</svg>
